<?xml version="1.0" encoding="UTF-8" standalone="no"?>
<!-- Created with Inkscape (http://www.inkscape.org/) -->

<svg
   xmlns:dc="http://purl.org/dc/elements/1.1/"
   xmlns:cc="http://creativecommons.org/ns#"
   xmlns:rdf="http://www.w3.org/1999/02/22-rdf-syntax-ns#"
   xmlns:svg="http://www.w3.org/2000/svg"
   xmlns="http://www.w3.org/2000/svg"
   xmlns:sodipodi="http://sodipodi.sourceforge.net/DTD/sodipodi-0.dtd"
   xmlns:inkscape="http://www.inkscape.org/namespaces/inkscape"
   width="217.423mm"
   height="121.87039mm"
   viewBox="0 0 770.39647 431.82422"
   id="svg2"
   version="1.1"
   inkscape:version="0.91 r"
   sodipodi:docname="logo chelou.svg">
  <defs
     id="defs4" />
  <sodipodi:namedview
     id="base"
     pagecolor="#3f3f3f"
     bordercolor="#666666"
     borderopacity="1.0"
     inkscape:pageopacity="0"
     inkscape:pageshadow="2"
     inkscape:zoom="0.88333334"
     inkscape:cx="395.91886"
     inkscape:cy="166.26848"
     inkscape:document-units="px"
     inkscape:current-layer="layer1"
     showgrid="false"
     inkscape:showpageshadow="false"
     borderlayer="false"
     inkscape:snap-bbox="true"
     inkscape:bbox-paths="false"
     inkscape:snap-bbox-midpoints="true"
     inkscape:snap-bbox-edge-midpoints="false"
     inkscape:bbox-nodes="false"
     showguides="false"
     inkscape:guide-bbox="true"
     inkscape:object-paths="true"
     inkscape:object-nodes="true"
     inkscape:snap-intersection-paths="true"
     inkscape:snap-smooth-nodes="true"
     inkscape:snap-midpoints="true"
     inkscape:window-width="1600"
     inkscape:window-height="876"
     inkscape:window-x="1600"
     inkscape:window-y="24"
     inkscape:window-maximized="1"
     fit-margin-top="0"
     fit-margin-left="0"
     fit-margin-right="0"
     fit-margin-bottom="0"
     inkscape:snap-page="true">
    <sodipodi:guide
       position="385.19921,215.91164"
       orientation="0,1"
       id="guide4226" />
    <sodipodi:guide
       position="385.19921,215.91165"
       orientation="1,0"
       id="guide4365" />
    <sodipodi:guide
       position="283.91343,-131.65991"
       orientation="0,1"
       id="guide4419" />
    <sodipodi:guide
       position="770.39647,215.91164"
       orientation="1,0"
       id="guide4234" />
    <sodipodi:guide
       position="692.3662,367.45248"
       orientation="1,0"
       id="guide4238" />
    <sodipodi:guide
       position="494.40596,314.66601"
       orientation="0,1"
       id="guide4242" />
    <sodipodi:guide
       position="528.02689,117.1582"
       orientation="0,1"
       id="guide4244" />
    <sodipodi:guide
       position="-4.4541129e-07,215.91164"
       orientation="1,0"
       id="guide4270" />
    <sodipodi:guide
       position="156.0625,215.91164"
       orientation="1,0"
       id="guide4272" />
    <sodipodi:guide
       position="78.031249,455.81446"
       orientation="1,0"
       id="guide4276" />
  </sodipodi:namedview>
  <metadata
     id="metadata7">
    <rdf:RDF>
      <cc:Work
         rdf:about="">
        <dc:format>image/svg+xml</dc:format>
        <dc:type
           rdf:resource="http://purl.org/dc/dcmitype/StillImage" />
        <dc:title></dc:title>
      </cc:Work>
    </rdf:RDF>
  </metadata>
  <g
     inkscape:label="Calque 1"
     inkscape:groupmode="layer"
     id="layer1"
     transform="translate(9.236323,-287.52297)">
    <path
       style="color:#000000;clip-rule:nonzero;display:inline;overflow:visible;visibility:visible;opacity:1;isolation:auto;mix-blend-mode:normal;color-interpolation:sRGB;color-interpolation-filters:linearRGB;solid-color:#000000;solid-opacity:1;fill:#FFFFFF;fill-opacity:1;fill-rule:evenodd;stroke:none;stroke-width:1px;stroke-linecap:butt;stroke-linejoin:miter;stroke-miterlimit:4;stroke-dasharray:none;stroke-dashoffset:0;stroke-opacity:0;color-rendering:auto;image-rendering:auto;shape-rendering:auto;text-rendering:auto;enable-background:accumulate"
       d="M 215.91211 0 A 215.91254 215.91254 0 0 0 0 215.91211 A 215.91254 215.91254 0 0 0 215.91211 431.82422 A 215.91254 215.91254 0 0 0 385.06836 349.72656 A 215.91254 215.91254 0 0 0 554.48438 431.82422 A 215.91254 215.91254 0 0 0 770.39648 215.91211 A 215.91254 215.91254 0 0 0 554.48438 0 A 215.91254 215.91254 0 0 0 385.33008 82.099609 A 215.91254 215.91254 0 0 0 215.91211 0 z M 176.78516 117.1582 L 215.91211 117.1582 L 334.95703 117.1582 L 435.44141 117.1582 L 554.48438 117.1582 L 593.61328 117.1582 A 98.753906 98.753906 0 0 1 692.36719 215.91211 A 98.753906 98.753906 0 0 1 593.61328 314.66602 L 554.48438 314.66602 L 435.44141 314.66602 L 334.95703 314.66602 L 215.91211 314.66602 L 176.78516 314.66602 A 98.753906 98.753906 0 0 1 78.03125 215.91211 A 98.753906 98.753906 0 0 1 176.78516 117.1582 z M 385.19922 153.06836 A 62.84378 62.84378 0 0 0 322.35547 215.91211 A 62.84378 62.84378 0 0 0 385.19922 278.75586 A 62.84378 62.84378 0 0 0 448.04297 215.91211 A 62.84378 62.84378 0 0 0 385.19922 153.06836 z M 215.91406 156.06055 A 59.851219 59.851219 0 0 0 156.0625 215.91211 A 59.851219 59.851219 0 0 0 215.91406 275.76367 L 275.76367 275.76367 L 275.76367 215.91211 L 275.76367 156.06055 L 215.91406 156.06055 z M 494.63477 156.06055 L 494.63477 215.87305 A 59.851219 59.851219 0 0 0 494.63281 215.91211 A 59.851219 59.851219 0 0 0 494.63477 215.9668 L 494.63477 275.76367 L 554.48438 275.76367 A 59.851219 59.851219 0 0 0 614.33594 215.91211 A 59.851219 59.851219 0 0 0 554.48438 156.06055 L 494.63477 156.06055 z "
       transform="translate(-9.236323,287.52297)"
       id="path4292" />
  </g>
</svg>
